HIERARCHY
ROOT Hips
{
	OFFSET 0.000000 0.000000 0.000000
	CHANNELS 6 Xposition Yposition Zposition Xrotation Yrotation Zrotation
	JOINT LeftUpLeg_virtual
	{
		OFFSET 0.000000 0.000000 0.000000
		CHANNELS 3 Xrotation Yrotation Zrotation
		JOINT LeftUpLeg
		{
			OFFSET 13.026900 -6.336304 -1.092800
			CHANNELS 3 Xrotation Yrotation Zrotation
			JOINT LeftLeg
			{
				OFFSET 0.524474 -46.096886 9.782700
				CHANNELS 3 Xrotation Yrotation Zrotation
				JOINT LeftFoot
				{
					OFFSET -0.524474 -53.427422 -12.948200
					CHANNELS 3 Xrotation Yrotation Zrotation
					JOINT LeftToeBase
					{
						OFFSET 0.192200 -14.009700 16.364100
						CHANNELS 3 Xrotation Yrotation Zrotation
						JOINT LeftToe_End
						{
							OFFSET -1.784700 -0.561700 9.474800
							CHANNELS 3 Xrotation Yrotation Zrotation
							End Site
							{
								OFFSET 0 0 0
							}
						}
					}
				}
			}
		}
	}
	JOINT RightUpLeg_virtual
	{
		OFFSET 0.000000 0.000000 0.000000
		CHANNELS 3 Xrotation Yrotation Zrotation
		JOINT RightUpLeg
		{
			OFFSET -12.883000 -6.336304 -1.092800
			CHANNELS 3 Xrotation Yrotation Zrotation
			JOINT RightLeg
			{
				OFFSET -0.524587 -46.096825 9.782800
				CHANNELS 3 Xrotation Yrotation Zrotation
				JOINT RightFoot
				{
					OFFSET 0.524587 -53.427383 -12.948300
					CHANNELS 3 Xrotation Yrotation Zrotation
					JOINT RightToeBase
					{
						OFFSET -0.192200 -14.009700 16.364100
						CHANNELS 3 Xrotation Yrotation Zrotation
						JOINT RightToe_End
						{
							OFFSET 1.784700 -0.561700 9.474800
							CHANNELS 3 Xrotation Yrotation Zrotation
							End Site
							{
								OFFSET 0 0 0
							}
						}
					}
				}
			}
		}
	}
	JOINT Spine_virtual
	{
		OFFSET 0.000000 0.000000 0.000000
		CHANNELS 3 Xrotation Yrotation Zrotation
		JOINT Spine
		{
			OFFSET 0.072000 7.257294 -0.789700
			CHANNELS 3 Xrotation Yrotation Zrotation
			JOINT Spine1
			{
				OFFSET 0.000000 12.508769 -0.658067
				CHANNELS 3 Xrotation Yrotation Zrotation
				JOINT Spine1_split
				{
					OFFSET 0.000000 12.508769 -0.658067
					CHANNELS 3 Xrotation Yrotation Zrotation
					JOINT Spine2
					{
						OFFSET 0.000000 12.508769 -0.658067
						CHANNELS 3 Xrotation Yrotation Zrotation
						JOINT Neck_virtual
						{
							OFFSET 0.000000 0.000000 0.000000
							CHANNELS 3 Xrotation Yrotation Zrotation
							JOINT Neck
							{
								OFFSET 0.000000 14.033295 7.520400
								CHANNELS 3 Xrotation Yrotation Zrotation
								JOINT Head
								{
									OFFSET 0.000000 8.198502 5.703100
									CHANNELS 3 Xrotation Yrotation Zrotation
									JOINT HeadTop_End
									{
										OFFSET 0.000000 17.760803 13.332701
										CHANNELS 3 Xrotation Yrotation Zrotation
										End Site
										{
											OFFSET 0 0 0
										}
									}
								}
							}
						}
						JOINT LeftShoulder_virtual
						{
							OFFSET 0.000000 0.000000 0.000000
							CHANNELS 3 Xrotation Yrotation Zrotation
							JOINT LeftShoulder
							{
								OFFSET 6.292450 5.785301 -0.669000
								CHANNELS 3 Xrotation Yrotation Zrotation
								JOINT LeftShoulder_split
								{
									OFFSET 6.292450 5.785301 -0.669000
									CHANNELS 3 Xrotation Yrotation Zrotation
									JOINT LeftArm
									{
										OFFSET 13.907140 -6.093903 1.965100
										CHANNELS 3 Xrotation Yrotation Zrotation
										JOINT LeftForeArm
										{
											OFFSET 34.140198 0.000000 0.000000
											CHANNELS 3 Xrotation Yrotation Zrotation
											JOINT LeftHand
											{
												OFFSET 40.960209 0.000000 0.000000
												CHANNELS 3 Xrotation Yrotation Zrotation
												End Site
												{
													OFFSET 0 0 0
												}
											}
										}
									}
								}
							}
						}
						JOINT RightShoulder_virtual
						{
							OFFSET 0.000000 0.000000 0.000000
							CHANNELS 3 Xrotation Yrotation Zrotation
							JOINT RightShoulder
							{
								OFFSET -6.292450 5.785301 -0.669000
								CHANNELS 3 Xrotation Yrotation Zrotation
								JOINT RightShoulder_split
								{
									OFFSET -6.292450 5.785301 -0.669000
									CHANNELS 3 Xrotation Yrotation Zrotation
									JOINT RightArm
									{
										OFFSET -13.907140 -6.093903 1.965100
										CHANNELS 3 Xrotation Yrotation Zrotation
										JOINT RightForeArm
										{
											OFFSET -34.140198 0.000000 0.000000
											CHANNELS 3 Xrotation Yrotation Zrotation
											JOINT RightHand
											{
												OFFSET -40.960209 0.000000 0.000000
												CHANNELS 3 Xrotation Yrotation Zrotation
												End Site
												{
													OFFSET 0 0 0
												}
											}
										}
									}
								}
							}
						}
					}
				}
			}
		}
	}
}
MOTION
Frames: 8
Frame Time: 0.03333333
11.408296 77.618729 68.205322 0.000000 0.000000 0.000000 -14.676272 -44.261255 -8.508073 -53.951845 -13.688491 29.613921 55.041305 -8.741001 3.828925 4.701387 -15.192405 -28.408300 -3.138973 0.494133 0.896096 0.000000 0.000000 0.000000 -15.911021 -40.517594 -8.083704 -19.336088 1.489099 -43.030052 76.052818 16.172886 -8.067217 -6.037314 -6.189438 20.068387 -18.926919 -1.165676 5.970046 0.000000 0.000000 0.000000 -15.067233 -39.425679 -10.126327 26.494734 3.431552 -9.850047 -0.243423 0.955502 0.659572 1.251433 -2.525111 1.400331 0.000000 0.000000 0.000000 0.877885 0.902713 1.130440 1.889192 13.883024 1.157714 1.243211 22.879638 -5.463937 0.000000 0.000000 0.000000 0.303385 0.958659 1.098857 1.242396 2.341843 -9.230756 -0.002907 -2.205156 1.904630 -58.488003 3.871919 -43.097794 -177.965742 -66.310372 -176.870890 0.000000 0.000000 0.000000 -0.109939 0.604612 0.970979 3.405393 11.673366 -3.236021 -7.843321 -1.980459 1.485489 -46.144195 21.866504 85.928534 -172.642361 66.312264 171.243484 0.000000 0.000000 0.000000 
10.773895 78.176590 64.763809 0.000000 0.000000 0.000000 -14.325635 -44.283559 -6.858251 -51.049589 -13.104331 29.641751 47.623586 -9.277949 3.655669 8.928212 -15.310532 -29.780823 -2.649465 0.532923 0.725398 0.000000 0.000000 0.000000 -16.362152 -39.996024 -6.706241 -17.073671 -0.485304 -43.539557 75.456658 16.181297 -8.487684 -13.283410 -9.067491 22.736482 -15.676027 -0.244086 3.849238 0.000000 0.000000 0.000000 -15.911663 -39.993350 -9.278382 25.200591 4.602420 -8.917453 0.321892 1.104752 -0.041180 0.642697 -2.214058 1.481907 0.000000 0.000000 0.000000 1.287276 1.015110 0.452084 2.296075 13.743203 0.677638 3.574523 22.306483 -5.810083 0.000000 0.000000 0.000000 0.954552 1.099537 0.432525 1.122692 3.661356 -9.179852 0.025385 -3.747916 2.076514 -57.186435 3.815864 -44.393675 -178.657791 -64.520836 -177.037820 0.000000 0.000000 0.000000 0.467595 0.714921 0.194970 3.278414 12.406419 -2.989102 -7.996186 -0.954742 0.849540 -47.574330 20.160972 86.730883 -170.990330 68.844298 170.019596 0.000000 0.000000 0.000000 
9.956917 79.420860 61.031723 0.000000 0.000000 0.000000 -12.897942 -43.627024 -4.695084 -49.475165 -11.999222 29.365299 40.483508 -8.839890 3.292159 12.394393 -15.209943 -28.735272 -2.318238 0.452478 0.481346 0.000000 0.000000 0.000000 -15.413087 -38.838658 -4.735551 -13.390005 -3.476547 -42.320043 73.513886 15.060053 -8.127056 -22.373671 -12.931949 21.631037 -10.184746 0.343636 2.456520 0.000000 0.000000 0.000000 -15.675836 -39.977879 -7.578544 23.896551 5.624303 -8.148879 0.836154 1.207761 -0.788151 0.067865 -1.804479 1.580326 0.000000 0.000000 0.000000 1.625663 1.115611 -0.310439 2.652259 13.421939 0.305003 5.167501 21.169024 -5.704368 0.000000 0.000000 0.000000 1.537997 1.203702 -0.258625 1.062714 4.513625 -8.901197 -0.068776 -4.623970 1.750593 -56.745055 2.787685 -45.284933 -179.804347 -63.043534 -177.712015 0.000000 0.000000 0.000000 0.997876 0.807555 -0.628564 3.188317 13.312508 -3.385337 -7.301774 0.512530 0.340841 -48.760164 18.538412 86.856920 -170.094496 69.372517 169.333490 0.000000 0.000000 0.000000 
9.051311 81.177750 56.987381 0.000000 0.000000 0.000000 -11.045702 -42.872179 -2.752540 -49.285648 -10.405056 28.828319 36.269076 -7.942671 3.125208 13.967030 -14.863504 -25.948811 -2.745658 0.226023 0.390158 0.000000 0.000000 0.000000 -13.646024 -37.714187 -2.885359 -10.157169 -6.674511 -39.579652 70.925866 13.049873 -7.069056 -30.232511 -16.244958 17.974676 -4.961298 0.619560 1.643216 0.000000 0.000000 0.000000 -14.610099 -39.901514 -5.599486 22.622282 6.363365 -7.525718 1.260620 1.244364 -1.371029 -0.022678 -1.295233 1.532265 0.000000 0.000000 0.000000 1.827754 1.181389 -0.920247 2.907474 13.021391 -0.070888 5.779508 19.823815 -5.418516 0.000000 0.000000 0.000000 1.952985 1.248200 -0.781356 1.063227 4.825000 -8.546051 -0.310386 -4.432171 1.011264 -57.076824 1.579280 -45.602837 178.723087 -62.392316 -178.842370 0.000000 0.000000 0.000000 1.406932 0.875047 -1.255976 3.151694 14.121933 -4.489032 -6.152893 1.650117 0.301524 -50.159164 17.189756 86.093155 -170.598058 67.644220 169.893415 0.000000 0.000000 0.000000 
8.223173 83.413765 52.804245 0.000000 0.000000 0.000000 -9.158290 -42.554367 -1.336276 -50.286356 -8.452005 28.074296 36.936693 -7.596554 3.233287 13.342147 -14.771138 -23.006307 -4.109952 -0.093634 0.757848 0.000000 0.000000 0.000000 -11.566955 -37.275047 -1.546752 -9.198266 -9.136750 -36.165698 67.921587 11.176341 -5.764371 -33.844373 -17.901342 15.499632 -2.824587 0.682985 1.102557 0.000000 0.000000 0.000000 -12.778277 -40.000590 -3.719349 21.427137 6.829544 -7.014675 1.568581 1.223093 -1.626868 0.059671 -0.911423 1.462624 0.000000 0.000000 0.000000 1.887152 1.210840 -1.186968 2.983186 12.722190 -0.521681 5.396404 18.652442 -5.255270 0.000000 0.000000 0.000000 2.181456 1.231348 -0.991985 1.081493 4.619935 -8.239104 -0.685357 -3.418612 -0.138741 -58.132368 0.760361 -45.377383 177.115602 -62.779390 179.700583 0.000000 0.000000 0.000000 1.641197 0.892411 -1.501612 3.143407 14.718122 -5.802887 -5.206476 2.108484 0.664463 -51.811117 16.131595 84.724542 -172.116054 64.722162 171.403966 0.000000 0.000000 0.000000 
7.514069 86.151245 48.599548 0.000000 0.000000 0.000000 -7.613912 -42.893673 -0.698572 -51.617396 -5.844022 26.930302 42.408945 -7.617902 3.434730 10.612879 -14.832304 -20.260354 -5.960384 -0.460026 1.553526 0.000000 0.000000 0.000000 -9.345475 -38.047763 -0.848107 -11.270209 -10.780625 -32.513548 64.572076 9.841156 -4.470221 -32.754394 -17.924698 15.578333 -3.935782 0.617489 0.638468 0.000000 0.000000 0.000000 -10.519017 -40.616464 -2.436470 20.308543 7.058114 -6.600192 1.752719 1.177287 -1.529712 0.386925 -0.633694 1.268018 0.000000 0.000000 0.000000 1.849347 1.211134 -1.064005 2.919952 12.574745 -1.060104 4.193451 17.844392 -5.372250 0.000000 0.000000 0.000000 2.242690 1.179733 -0.867897 1.103743 3.995498 -8.012362 -1.072742 -2.022957 -1.259248 -59.742490 0.501503 -44.856410 175.588277 -63.904903 178.099382 0.000000 0.000000 0.000000 1.720812 0.879282 -1.327449 3.160868 15.041318 -6.960232 -4.536034 1.743857 1.165252 -53.399686 15.567611 83.253750 -173.713649 62.164851 173.012271 0.000000 0.000000 0.000000 
7.024379 89.398972 44.321072 0.000000 0.000000 0.000000 -6.264409 -43.931169 -0.823689 -52.012649 -2.623545 25.143337 50.673119 -7.302288 3.567946 6.101358 -14.337802 -17.498275 -7.412777 -0.824113 2.548404 0.000000 0.000000 0.000000 -7.311320 -40.176201 -0.847367 -15.461383 -12.320364 -28.764034 60.983788 8.571596 -3.034867 -29.055918 -16.738784 16.453775 -5.506195 0.523767 0.216098 0.000000 0.000000 0.000000 -7.971719 -41.933926 -1.860808 19.266410 7.129000 -6.253660 1.814379 1.153755 -1.184727 0.788128 -0.387233 1.001319 0.000000 0.000000 0.000000 1.765441 1.200286 -0.658739 2.791465 12.599488 -1.625153 2.592775 17.461532 -5.803584 0.000000 0.000000 0.000000 2.180680 1.128531 -0.523200 1.085625 3.200525 -7.776023 -1.356913 -0.813967 -1.824382 -61.667305 0.814148 -44.148024 174.499763 -65.222713 176.726172 0.000000 0.000000 0.000000 1.708438 0.872487 -0.865431 3.249046 15.141310 -7.678810 -4.237691 0.966210 1.606867 -54.720774 15.501953 82.136194 -175.078594 60.947315 174.411175 0.000000 0.000000 0.000000 
6.702217 92.970657 39.961323 0.000000 0.000000 0.000000 -4.870846 -45.479662 -1.321283 -50.628709 0.875273 22.830824 58.847517 -6.453796 3.414779 0.533282 -12.901889 -14.687362 -7.774782 -1.028595 3.368410 0.000000 0.000000 0.000000 -5.327730 -43.277636 -1.101366 -20.339786 -14.050274 -25.064207 57.104903 6.908467 -1.404455 -25.257213 -14.922707 16.353930 -4.859090 0.458996 -0.115218 0.000000 0.000000 0.000000 -5.368438 -43.792769 -1.815475 18.229529 7.121626 -5.962592 1.749223 1.160165 -0.759127 0.927009 -0.295632 0.837442 0.000000 0.000000 0.000000 1.684105 1.196166 -0.158740 2.675205 12.770253 -2.091150 1.067532 17.496134 -6.415584 0.000000 0.000000 0.000000 2.029799 1.099267 -0.116768 1.011636 2.414994 -7.411412 -1.422996 -0.015452 -1.937059 -63.973901 1.312192 -43.379672 174.143514 -66.444927 175.918188 0.000000 0.000000 0.000000 1.625638 0.879713 -0.328717 3.402047 15.096875 -7.887060 -4.198615 0.311052 1.727569 -55.920825 16.057090 81.778326 -176.154226 60.998978 175.580231 0.000000 0.000000 0.000000 
